# xmcd
#
# Track frame offsets: 
#        150
#        17875
#        32493
#        50208
#        66670
#        87713
#        99855
#        116468
#        134148
#        150098
#        163593
#        178955
#        196795
#        210508
#        223953
#
# Disc length: 3208 seconds
#
# Revision: 0
# Processed by: cddbd v1.5.2PL0 Copyright (c) Steve Scherf et al.
# Submitted via: ExactAudioCopy v1.0b3
#
DISCID=dc0c860f
DTITLE=和田弘とマヒナスターズ - エッセンシャル・ベスト 和田弘とマヒナスターズ VICL-61494
DYEAR=1900
DGENRE=Blues
TTITLE0=泣かないで 
TTITLE1=お百度こいさん 
TTITLE2=グッド・ナイト 
TTITLE3=誰よりも君を愛す
TTITLE4=北上夜曲 
TTITLE5=惚れたって駄目よ
TTITLE6=男ならやってみな 
TTITLE7=寒い朝 
TTITLE8=島のブルース 
TTITLE9=ウナセラディ東京 
TTITLE10=お座敷小唄 
TTITLE11=愛してはいけない 
TTITLE12=愛して愛して愛しちゃったのよ 
TTITLE13=ここがいいのよ
TTITLE14=銀座ブルース
EXTD=
EXTT0=
EXTT1=
EXTT2=
EXTT3=
EXTT4=
EXTT5=
EXTT6=
EXTT7=
EXTT8=
EXTT9=
EXTT10=
EXTT11=
EXTT12=
EXTT13=
EXTT14=
PLAYORDER=
